# xmcd CD database file
#
# Track frame offsets:
#	150
#	46309
#	95921
#	139513
#	175767
#	218641
#	263441
#
# Disc length: 4150 seconds
#
# Revision: 1
# Processed by: cddbd v1.5.2PL0 Copyright (c) Steve Scherf et al.
# Submitted via: CDex 1.70beta2
#
DISCID=59103407
DTITLE=Jakob Dinesen et al - Lady With a Secret
DYEAR=2004
DGENRE=Jazz
TTITLE0=Ray's Sting (Ben Besiakovi)
TTITLE1=Srebrenica (Jakob Dinesen)
TTITLE2=It's All In Your Head (Jakob Dinesen)
TTITLE3=Lady With A Secret (Jakob Dinesen)
TTITLE4='Round Midnight (Thelonius Monk)
TTITLE5=Normalization (Jakob Dinesen)
TTITLE6=Ray's Sting Rough Mix (Ben Besiakovski)
EXTD=YEAR: 2004
EXTT0=
EXTT1=
EXTT2=
EXTT3=
EXTT4=
EXTT5=
EXTT6=
PLAYORDER=
